# xmcd
#
# Track frame offsets: 
#        150
#        12472
#        25735
#        38867
#        49210
#        63155
#        77855
#        94535
#        108500
#        125330
#        138600
#        152987
#        166817
#        179117
#        192157
#        204050
#        217227
#        233997
#        247830
#        258442
#        272217
#        283327
#        300170
#        312725
#
# Disc length: 4374 seconds
#
# Revision: 2
# Processed by: cddbd v1.5.2PL0 Copyright (c) Steve Scherf et al.
# Submitted via: ExactAudioCopy v1.0b3
#
DISCID=5d111418
DTITLE=Various Artist - 筒美京平 ウルトラ・ベスト・トラックス コロムビア編 Vol.1 60's and 70's 
DTITLE=COCA-14809
DYEAR=1900
DGENRE=Pop
TTITLE0=ヒデとロザンナ - 粋なうわさ
TTITLE1=ヒデとロザンナ - ローマの奇跡
TTITLE2=ヒデとロザンナ - 真夜中のボサノバ
TTITLE3=ヒデとロザンナ - 愛のひととき
TTITLE4=ヒデとロザンナ - トマトの家
TTITLE5=カサノヴァ７ - あれから君は
TTITLE6=カサノヴァ７ - 異邦人ブルース
TTITLE7=可愛和美 - このごろ二人
TTITLE8=可愛和美 - あの子は涙
TTITLE9=可愛和美 - 可愛い女になりたい
TTITLE10=可愛和美 - あなたと私
TTITLE11=可愛和美 - 夢でいいから
TTITLE12=伊東きよ子 - 花のマドンナ
TTITLE13=川奈ミキ - 夢のソネット
TTITLE14=徳永芽里 - 白い雨
TTITLE15=島倉千代子 - 捧げる愛は
TTITLE16=島倉千代子 - 涙きざんで
TTITLE17=ジュディ・オング - 涙のドレス
TTITLE18=ジュディ・オング - 明日では遅い
TTITLE19=ジュディ・オング - スワンの涙
TTITLE20=ジュディ・オング - 太陽は泣いている
TTITLE21=江見京子 - 遠い日の恋
TTITLE22=リッシーベイン - 別れのハーバーライト
TTITLE23=池田桃子 - 愛の悩み
EXTD=
EXTT0=
EXTT1=
EXTT2=
EXTT3=
EXTT4=
EXTT5=
EXTT6=
EXTT7=
EXTT8=
EXTT9=
EXTT10=
EXTT11=
EXTT12=
EXTT13=
EXTT14=
EXTT15=
EXTT16=
EXTT17=
EXTT18=
EXTT19=
EXTT20=
EXTT21=
EXTT22=
EXTT23=
PLAYORDER=
